HIERARCHY
ROOT Hips
{
  OFFSET -33.9132 29.2015 117.021
  CHANNELS 6 Xposition Yposition Zposition Zrotation Xrotation Yrotation
  JOINT LeftUpLeg
  {
    OFFSET 8.64259 1.95398 -2.38835
    CHANNELS 3 Zrotation Xrotation Yrotation
    JOINT LeftLeg
    {
      OFFSET 43.7702 0 0
      CHANNELS 3 Zrotation Xrotation Yrotation
      JOINT LeftFoot
      {
        OFFSET 40.6238 0 0
        CHANNELS 3 Zrotation Xrotation Yrotation
        JOINT LeftToeBase
        {
          OFFSET 12.7242 0 0
          CHANNELS 3 Zrotation Xrotation Yrotation
          End Site
          {
            OFFSET 0 0 0
          }
        }
      }
    }
  }
  JOINT RightUpLeg
  {
    OFFSET -8.2249 1.95398 -2.59336
    CHANNELS 3 Zrotation Xrotation Yrotation
    JOINT RightLeg
    {
      OFFSET 43.5653 0 0
      CHANNELS 3 Zrotation Xrotation Yrotation
      JOINT RightFoot
      {
        OFFSET 40.6238 0 0
        CHANNELS 3 Zrotation Xrotation Yrotation
        JOINT RightToeBase
        {
          OFFSET 12.7242 0 0
          CHANNELS 3 Zrotation Xrotation Yrotation
          End Site
          {
            OFFSET 0 0 0
          }
        }
      }
    }
  }
  JOINT Spine
  {
    OFFSET 0.165834 0.87714 6.61349
    CHANNELS 3 Zrotation Xrotation Yrotation
    JOINT Spine1
    {
      OFFSET 7.38963 1.71661e-005 0
      CHANNELS 3 Zrotation Xrotation Yrotation
      JOINT Spine2
      {
        OFFSET 11.9445 1.14441e-005 0
        CHANNELS 3 Zrotation Xrotation Yrotation
        JOINT Spine3
        {
          OFFSET 14.7254 4.19617e-005 0
          CHANNELS 3 Zrotation Xrotation Yrotation
          JOINT Spine4
          {
            OFFSET 10.9679 0 0
            CHANNELS 3 Zrotation Xrotation Yrotation
            JOINT RightShoulder
            {
              OFFSET 2.46616 -1.6653 3.69651
              CHANNELS 3 Zrotation Xrotation Yrotation
              JOINT RightArm
              {
                OFFSET 13.0012 0 0
                CHANNELS 3 Zrotation Xrotation Yrotation
                JOINT RightForeArm
                {
                  OFFSET 28.7848 1.62311e-005 0
                  CHANNELS 3 Zrotation Xrotation Yrotation
                  JOINT RightHand
                  {
                    OFFSET 26.5688 1.62095e-005 0
                    CHANNELS 3 Zrotation Xrotation Yrotation
                    End Site
                    {
                      OFFSET 0 0 0
                    }
                  }
                }
              }
            }
            JOINT LeftShoulder
            {
              OFFSET 2.38034 -1.29275 -3.7523
              CHANNELS 3 Zrotation Xrotation Yrotation
              JOINT LeftArm
              {
                OFFSET 16.3182 6.07031e-005 0
                CHANNELS 3 Zrotation Xrotation Yrotation
                JOINT LeftForeArm
                {
                  OFFSET 27.0901 0 0
                  CHANNELS 3 Zrotation Xrotation Yrotation
                  JOINT LeftHand
                  {
                    OFFSET 24.5451 1.51738e-005 0
                    CHANNELS 3 Zrotation Xrotation Yrotation
                    End Site
                    {
                      OFFSET 0 0 0
                    }
                  }
                }
              }
            }
            JOINT Neck
            {
              OFFSET 5.0226 -0.0266342 0
              CHANNELS 3 Zrotation Xrotation Yrotation
              JOINT Head
              {
                OFFSET 6.69364 2.86102e-005 0
                CHANNELS 3 Zrotation Xrotation Yrotation
                End Site
                {
                  OFFSET 0 0 0
                }
              }
            }
          }
        }
      }
    }
  }
}
MOTION
Frames:	13
Frame Time:	0.0416667
-2.98545 98.9472 91.0474 -138.478 -81.2828 -139.44 -176.94 1.06292 83.23 -24.112 17.5848 -0.412888 75.4261 10.8228 1.65324 9.84331 -13.4003 6.05717 177.662 17.1753 89.0391 -51.2452 -2.63464 -4.16967 71.2143 -8.51638 -5.25583 18.4156 2.74544 5.97326 0.41071 8.0456 -89.9533 10.7828 0.839414 0.0150787 -0.887828 0.839264 -0.0218922 -23.425 0.796063 0.266674 -3.41235 0.796073 0.266683 90.4747 -25.8055 -107.47 51.7369 5.42845 -0.877961 -5.1696 -40.0461 -5.37503 -16.4937 1.03082 -12.6699 -86.5126 -44.8409 83.1098 -13.2121 -13.6531 -29.6263 -8.9795 44.6868 -0.018908 10.9951 -0.788138 -11.7928 -6.93971 1.01447 -2.80608 -3.2046 1.25102 -4.19084 
-4.60291 99.0553 96.3911 -161.18 -82.9909 -160.747 -175.851 -3.61371 86.0906 -22.4998 22.2615 0.389972 77.8044 12.4428 1.83134 7.77253 -14.5201 5.81996 178.23 18.8178 90.7457 -34.5161 -4.10769 -2.68077 68.0096 -6.32721 -3.51004 20.0615 2.81897 3.7236 -0.0939114 8.06895 -90.1623 10.7354 -0.261816 -0.298479 -0.935558 -0.274702 -0.286671 -23.4706 -0.160007 -0.363369 -3.45792 -0.160006 -0.363364 90.625 -26.3553 -106.926 50.3027 6.96663 2.33008 -5.09118 -38.8099 -5.3319 -14.7262 1.04042 -13.6929 -86.8596 -40.4026 81.7145 -15.7423 -15.1969 -36.593 -8.22704 41.0257 -0.020311 14.1836 -1.70549 -15.0749 -6.94452 1.18103 -5.09578 -3.27646 1.58926 -1.64429 
-6.04007 98.3826 102.433 -177.096 -82.8809 -176.009 -173.658 -9.02559 89.4198 -20.6228 25.8481 0.0295987 80.5534 14.0044 0.44538 11.0969 -14.3295 8.5445 177.688 17.309 91.8825 -15.881 -8.09305 -0.636066 63.97 -4.0473 -2.09154 23.0069 1.25736 4.66739 -0.431575 8.12494 -90.2729 10.6218 -0.985035 -0.453566 -1.04887 -1.00404 -0.409781 -23.5856 -0.80319 -0.728654 -3.57292 -0.803183 -0.728652 90.6032 -27.5119 -106.506 48.7074 8.34637 5.24294 -5.15639 -39.8414 -5.36771 -15.3583 1.12757 -14.0041 -87.3569 -39.0842 80.5965 -16.5624 -16.6516 -42.2345 -7.67829 39.2842 0.127411 19.4951 -3.20609 -18.5431 -6.56438 1.38009 -6.7825 -3.75775 1.93885 -0.0292383 
-7.58561 96.8851 109.109 -177.871 -82.3538 -176.041 -170.769 -14.8412 93.0121 -18.8026 27.7623 -0.690499 84.0932 16.6794 0.144903 12.2779 -13.6562 8.67877 178.443 17.107 94.024 -7.75678 -8.51319 0.213594 63.6474 -3.74705 -2.02648 23.7059 0.953622 4.69294 -0.59073 8.16533 -90.3401 10.5398 -1.3328 -0.556639 -1.13057 -1.356 -0.497433 -23.6688 -1.1039 -0.931483 -3.65618 -1.1039 -0.931496 90.4615 -29.6397 -105.981 46.7073 9.40314 6.91528 -5.2185 -40.7944 -5.40267 -13.7364 0.991029 -13.9237 -87.4616 -39.2252 80.4467 -19.7088 -18.2549 -45.7334 -5.25818 39.2534 -1.68124 22.1316 -4.48476 -21.9566 -6.55365 1.81587 -7.84594 -3.8405 2.45235 0.892476 
-9.1396 95.2002 116.709 -179.914 -81.9296 -176.71 -167.461 -19.7652 97.5586 -19.0059 28.4728 -0.725628 87.1573 18.8944 -0.31338 11.6375 -13.8692 8.38694 178.94 17.9802 96.6994 -13.1062 -9.06157 0.79448 63.555 -3.13892 -1.6165 24.1488 1.12023 3.48182 -0.763768 8.12142 -90.5198 10.6242 -1.7602 -0.873731 -1.04578 -1.79694 -0.795408 -23.5853 -1.41625 -1.36239 -3.57265 -1.41624 -1.36239 90.6717 -30.1896 -105.357 46.1018 9.93239 8.31247 -5.19762 -40.4767 -5.39083 -11.4038 0.889074 -14.7775 -87.3742 -40.8214 80.9339 -23.4919 -18.2437 -46.0283 -2.4636 40.7163 -4.61375 23.2109 -5.45714 -24.9551 -6.50347 2.42843 -6.73064 -4.53677 2.9796 0.292643 
-10.4159 94.7253 125.126 -179.13 -81.4586 -174.488 -166.417 -23.7746 99.6738 -20.1429 27.0641 1.32437 79.3775 13.961 1.09512 26.5641 -5.77986 10.2291 178.7 20.1706 98.8884 -24.0864 -9.92524 1.10856 61.3819 0.0819693 -3.01552 19.6154 2.53258 5.1525 -0.893991 7.99922 -90.7133 10.8642 -2.10953 -1.2206 -0.805511 -2.1612 -1.12655 -23.3453 -1.64521 -1.79819 -3.33267 -1.64521 -1.7982 90.9932 -30.3304 -104.669 46.5866 9.99363 9.08284 -5.09719 -38.9081 -5.3352 -9.83047 0.765976 -14.9517 -87.5913 -42.7799 80.9783 -24.2174 -16.1866 -41.7386 -2.17554 43.185 -5.31372 22.309 -4.92809 -23.5611 -6.89231 2.83002 -5.3404 -5.68727 3.24121 0.602862 
-11.5407 94.6967 133.388 -172.526 -80.5741 -166.354 -166.959 -21.6486 100.368 -31.5467 25.134 3.19415 68.0025 5.83865 1.35035 36.51 0.256055 9.43535 178.033 18.3301 100.984 -31.5685 -9.1869 1.93651 63.046 -1.04871 -2.61008 16.992 3.88408 4.48542 -0.785444 7.9158 -90.9537 11.0245 -2.00554 -1.70583 -0.645924 -2.07866 -1.61592 -23.1789 -1.4003 -2.22957 -3.16623 -1.40029 -2.22958 90.9396 -29.7372 -104.987 47.0626 9.819 8.91632 -5.0559 -38.2428 -5.31298 -8.17119 0.688799 -15.8822 -87.8211 -44.1885 80.8915 -24.035 -11.8863 -36.6913 -6.64929 45.7151 -1.20428 16.9036 -3.13663 -20.5674 -7.83909 2.96944 -2.75482 -5.90707 3.17809 -0.34776 
-12.7003 95.07 139.985 -173.01 -79.6626 -166.181 -168.096 -11.6422 101.99 -49.2114 26.8754 3.9169 53.1367 -4.4032 -2.21454 18.9928 -7.7568 5.60975 177.715 14.2252 102.289 -34.5298 -9.23657 2.301 67.4863 -4.41295 -3.53602 17.9886 3.31653 4.86963 -0.655543 8.02156 -91.0383 10.8124 -1.78461 -1.89906 -0.858551 -1.86644 -1.81869 -23.3873 -1.13153 -2.34743 -3.37468 -1.13153 -2.34743 90.5019 -29.4714 -105.959 47.216 8.96054 5.79417 -5.06068 -38.32 -5.31557 -8.36319 0.744719 -16.4533 -87.9549 -44.7211 80.7846 -25.8955 -10.7372 -35.4607 -8.07039 54.2114 0.0574782 6.7563 -0.634378 -18.6399 -7.12778 2.94818 -1.23307 -6.06679 3.06807 -0.897067 
-13.3344 95.7838 145.774 -176.507 -79.9322 -170.207 -170.688 0.217629 100.561 -62.6208 22.4596 4.05839 58.3479 -1.06234 -1.37186 15.8291 -10.1583 6.66368 177.058 9.49849 101.599 -33.3689 -9.69069 2.72982 70.3752 -6.47644 -3.74315 19.7763 2.61376 4.68913 -0.424625 8.07907 -90.9802 10.7019 -1.29719 -1.83013 -0.96963 -1.37645 -1.77129 -23.4963 -0.68733 -2.13524 -3.48367 -0.687323 -2.13525 90.3007 -29.0407 -106.527 47.2475 7.68239 1.10047 -5.10976 -39.1074 -5.34199 -11.2674 0.987975 -15.9545 -88.3465 -45.8708 80.3976 -26.5268 -10.5136 -28.8597 -8.41525 55.9237 -0.0222778 6.17791 0.152315 -11.0192 -6.56774 2.33088 -0.655139 -5.38741 2.40109 -0.8408 
-13.6805 96.7658 151.226 -169.01 -80.5678 -164.512 -172.726 10.1387 96.4314 -63.7653 13.0463 3.17442 68.6692 6.31468 1.61819 12.3854 -11.4496 5.46149 176.824 4.40367 99.6956 -29.7683 -11.4054 2.06479 72.2965 -7.70784 -3.21503 21.2958 2.07618 4.35095 0.0176697 8.05393 -90.7733 10.763 -0.321535 -1.50812 -0.908791 -0.387592 -1.49252 -23.4369 0.146521 -1.53503 -3.42421 0.146523 -1.53503 90.117 -28.464 -107.123 46.0437 6.79279 -3.83742 -5.2006 -40.5217 -5.39212 -13.4134 1.18023 -15.8475 -88.9875 -47.6341 79.7635 -24.1794 -9.52066 -15.6313 -9.70508 51.2298 -0.0220764 9.17685 -0.226844 -10.2133 -6.77461 1.38805 -0.633609 -4.81069 1.44269 -0.281582 
-13.7285 97.649 156.802 -150.631 -80.1155 -149.117 -174.025 16.4587 91.0103 -53.2427 -0.869225 1.77871 71.0916 8.41287 1.88902 9.37237 -12.7848 4.75909 176.406 -0.280335 96.6197 -27.0841 -14.9902 0.145025 73.6328 -8.34506 -3.04008 22.1222 1.99453 3.48988 0.619549 8.03346 -90.4394 10.8106 1.03083 -0.969945 -0.860383 0.987144 -1.01439 -23.3974 1.27468 -0.615294 -3.38473 1.27468 -0.61529 90.0458 -27.0616 -107.843 44.9801 6.0122 -8.42607 -5.34199 -42.618 -5.47518 -16.7072 1.40184 -15.1786 -88.3087 -48.4294 80.9655 -21.655 -7.23869 -1.89966 -11.3104 42.6699 -0.021024 9.57389 -0.77495 -13.4059 -7.11827 0.757469 1.5175 -4.16634 0.662917 -2.07121 
-13.5302 97.6187 162.787 -136.969 -79.2634 -137.086 -175.875 19.3968 88.0946 -36.0784 -1.88583 0.507089 67.9243 7.09143 1.70239 11.2606 -10.4294 2.86848 175.458 -4.32851 94.1088 -25.8098 -18.3192 -0.976916 75.9116 -9.84856 -3.35574 22.0808 2.03484 3.41816 1.09132 8.02897 -90.2872 10.8237 2.04044 -0.761325 -0.845902 2.00495 -0.850422 -23.3938 2.17487 -0.112632 -3.38111 2.17487 -0.112618 89.8918 -24.6355 -109.228 43.687 5.46668 -12.7787 -5.3538 -42.7886 -5.48223 -17.6604 1.59981 -15.9229 -87.4198 -49.8642 82.5713 -18.8876 -6.49444 8.56853 -11.8936 37.4074 -0.0213678 6.86806 -0.65507 -14.8202 -6.85011 0.399971 3.89791 -3.4177 0.107034 -3.68884 
-13.5261 96.6835 169.502 -131.049 -78.7008 -131.871 -176.854 17.3725 86.4539 -13.2091 3.80129 -0.720985 62.3341 4.0688 -1.43141 15.0457 -10.5327 6.51356 173.807 -9.14922 91.6979 -24.2725 -20.7959 -1.14713 78.5005 -11.6593 -3.20858 23.3686 1.48377 3.39157 1.35446 8.0263 -90.2441 10.8315 2.58418 -0.726665 -0.837148 2.5497 -0.839771 -23.393 2.68303 0.0841389 -3.38032 2.68303 0.0841374 90.2574 -23.1537 -109.115 41.6698 5.32683 -17.4321 -5.54017 -45.347 -5.59783 -18.034 1.89348 -17.5845 -87.2251 -51.0355 83.0605 -16.6137 -9.5807 15.4334 -11.1354 34.3385 -0.0217475 4.5914 -0.11216 -11.1648 -6.4047 0.179608 6.43001 -2.67175 -0.36702 -5.44283 
